<?xml version="1.0" standalone="no"?>
<!DOCTYPE svg PUBLIC "-//W3C//DTD SVG 20010904//EN"
 "http://www.w3.org/TR/2001/REC-SVG-20010904/DTD/svg10.dtd">
<svg version="1.0" xmlns="http://www.w3.org/2000/svg"
 width="500.000000pt" height="500.000000pt" viewBox="0 0 500.000000 500.000000"
 preserveAspectRatio="xMidYMid meet">

<g transform="translate(0.000000,500.000000) scale(0.100000,-0.100000)"
fill="#000000" stroke="none">
<path d="M2036 3033 c-6 -20 -96 -440 -96 -449 0 -3 12 -4 27 -2 28 3 29 5 63
171 6 31 15 57 20 57 10 0 28 -77 36 -163 l6 -68 31 3 31 3 42 200 c62 291 59
265 30 265 -28 0 -26 4 -57 -143 -14 -66 -26 -103 -31 -95 -4 7 -8 9 -8 3 0
-5 -4 -4 -9 4 -5 8 -12 63 -16 122 l-7 109 -28 0 c-19 0 -31 -6 -34 -17z"/>
<path d="M2265 3029 c-3 -13 -26 -120 -51 -238 -25 -118 -47 -218 -50 -223 -3
-4 -1 -8 4 -8 9 0 115 481 107 488 -2 2 -7 -6 -10 -19z"/>
<path d="M2350 3028 c-5 -13 -28 -111 -50 -218 -22 -107 -43 -203 -46 -212 -5
-16 3 -18 80 -18 79 0 86 2 86 20 0 15 -7 20 -27 20 -16 0 -36 7 -46 15 -17
12 -18 19 -7 72 18 92 18 92 58 95 29 2 38 8 40 24 2 17 -4 23 -27 27 -35 7
-37 18 -19 96 l11 51 54 0 c50 0 53 1 53 25 0 24 -2 25 -75 25 -69 0 -76 -2
-85 -22z"/>
<path d="M2530 3031 c0 -32 -28 -51 -75 -51 l-43 0 -7 -46 c-3 -25 -4 -48 -2
-50 3 -3 8 16 11 41 l7 45 42 0 c23 0 48 4 54 8 13 8 30 72 19 72 -3 0 -6 -9
-6 -19z"/>
<path d="M2616 3041 c-7 -10 -96 -426 -96 -446 0 -12 14 -15 59 -15 49 0 61 3
74 23 13 17 16 18 16 6 1 -9 8 -20 17 -23 29 -11 121 -6 131 7 6 6 29 102 52
212 23 110 45 210 48 223 4 18 1 22 -21 22 -34 0 -39 -12 -71 -165 -51 -246
-56 -265 -71 -265 -8 0 -14 5 -14 10 0 6 -7 10 -16 10 -10 0 -14 6 -10 18 3 9
23 102 45 205 l39 188 -31 -3 -31 -3 -44 -205 c-40 -191 -57 -244 -69 -212 -3
6 -11 12 -19 12 -8 0 -14 2 -14 5 0 3 18 89 40 191 22 103 40 192 40 200 0 15
-45 20 -54 5z"/>
<path d="M2690 3044 c0 -5 -18 -92 -40 -194 -21 -101 -37 -186 -35 -188 5 -5
4 -6 51 211 19 93 33 172 30 175 -3 3 -6 1 -6 -4z"/>
<path d="M2802 2989 c-7 -35 -25 -124 -41 -197 -16 -73 -25 -130 -21 -125 10
11 83 360 78 374 -2 7 -9 -17 -16 -52z"/>
<path d="M3028 3033 c-13 -14 -58 -198 -58 -234 0 -5 14 -9 30 -9 44 0 55 -30
38 -100 l-14 -55 -47 -3 c-26 -2 -47 -7 -47 -12 0 -4 -3 -15 -6 -24 -5 -14 4
-16 64 -16 46 0 73 5 81 13 11 14 51 192 51 227 0 13 -11 19 -40 24 -22 3 -40
10 -40 14 0 6 11 56 25 120 5 19 12 22 55 22 28 0 50 4 50 9 0 5 3 16 6 25 9
25 -127 23 -148 -1z"/>
<path d="M2935 3028 c-3 -7 -24 -107 -49 -221 -28 -131 -50 -215 -61 -227 -12
-13 -34 -20 -74 -23 l-56 -3 61 -2 c36 -1 67 3 76 11 11 8 32 86 63 232 25
121 48 226 50 233 2 6 2 12 -1 12 -2 0 -7 -6 -9 -12z"/>
<path d="M3190 3022 c0 -29 -21 -42 -66 -42 -38 0 -42 -3 -47 -29 -3 -16 -9
-41 -13 -56 -4 -18 -3 -26 3 -22 6 4 14 27 17 52 l7 45 42 0 c23 0 47 4 53 8
14 9 24 62 13 62 -5 0 -9 -8 -9 -18z"/>
<path d="M2122 2945 c0 -16 2 -22 5 -12 2 9 2 23 0 30 -3 6 -5 -1 -5 -18z"/>
<path d="M2454 2818 c-8 -28 -15 -33 -45 -36 -35 -3 -36 -5 -48 -58 -7 -31
-11 -58 -8 -61 3 -2 10 20 17 51 11 53 12 55 48 58 31 3 37 7 44 37 12 43 4
51 -8 9z"/>
<path d="M3120 2717 c-13 -66 -30 -126 -36 -135 -9 -12 -34 -19 -91 -23 l-78
-6 82 -1 c76 -2 84 0 97 21 16 25 59 220 54 245 -2 9 -15 -36 -28 -101z"/>
<path d="M2988 2763 c6 -2 18 -2 25 0 6 3 1 5 -13 5 -14 0 -19 -2 -12 -5z"/>
<path d="M2030 2673 c-7 -37 -17 -78 -21 -90 -5 -13 -5 -23 0 -23 10 0 47 167
39 176 -3 2 -11 -26 -18 -63z"/>
<path d="M2433 2591 c-10 -28 -14 -30 -74 -34 l-64 -3 68 -2 c65 -2 68 -1 78
25 5 14 8 30 7 35 -2 5 -8 -5 -15 -21z"/>
<path d="M2646 2572 c-4 -4 -33 -10 -64 -13 l-57 -6 60 -1 c58 -2 97 9 77 21
-5 4 -12 3 -16 -1z"/>
<path d="M1967 2523 c-4 -3 -7 -12 -7 -20 0 -9 15 -13 50 -13 79 0 79 -3 20
-275 -27 -129 -50 -237 -50 -240 0 -3 13 -5 29 -5 35 0 28 -22 86 255 25 121
50 230 55 243 8 19 17 22 70 22 33 0 60 2 60 4 0 2 3 11 6 20 5 14 -12 16
-153 16 -88 0 -163 -3 -166 -7z"/>
<path d="M2298 2500 c-3 -16 -1 -30 3 -30 4 0 9 14 11 30 3 17 1 30 -3 30 -4
0 -9 -13 -11 -30z"/>
<path d="M1983 2463 c15 -2 37 -2 50 0 12 2 0 4 -28 4 -27 0 -38 -2 -22 -4z"/>
<path d="M2115 2243 c-66 -312 -58 -291 -103 -296 -32 -4 -31 -4 7 -3 l45 1
23 110 c13 61 37 176 54 257 l32 147 36 4 36 4 -41 1 -41 2 -48 -227z"/>
<path d="M2246 2424 c-9 -8 -16 -17 -16 -19 0 -3 -20 -99 -45 -215 -25 -116
-45 -213 -45 -215 0 -3 38 -5 84 -5 57 0 87 4 94 13 9 11 102 420 102 449 0 4
-36 8 -79 8 -59 0 -84 -4 -95 -16z m90 -58 c5 -20 -57 -340 -68 -352 -3 -2
-16 1 -29 8 l-25 12 33 155 c18 86 35 166 38 179 7 30 43 29 51 -2z"/>
<path d="M2301 2365 c0 -6 -14 -73 -31 -150 -16 -77 -30 -147 -29 -155 0 -8
16 53 35 135 18 83 32 157 30 165 -2 8 -4 10 -5 5z"/>
<path d="M2520 2418 c-5 -13 -28 -111 -50 -218 -22 -107 -43 -203 -46 -212 -5
-16 2 -18 61 -18 58 0 68 3 72 20 3 11 9 20 13 20 4 0 10 -9 13 -20 4 -17 14
-20 71 -20 59 0 67 2 76 23 5 12 28 110 50 217 22 107 43 203 46 213 4 13 -1
17 -25 17 -35 0 -29 17 -81 -225 -38 -177 -56 -229 -67 -197 -3 6 -11 12 -19
12 -8 0 -14 2 -14 4 0 2 18 87 40 190 22 102 40 193 40 201 0 20 -49 20 -56 0
-3 -8 -25 -103 -48 -211 -23 -109 -46 -199 -51 -200 -6 -2 -18 3 -29 11 -17
13 -17 21 23 208 23 106 41 197 41 200 0 4 -11 7 -25 7 -17 0 -29 -8 -35 -22z"/>
<path d="M2686 2262 c-21 -97 -39 -186 -42 -197 l-4 -20 10 20 c12 25 83 365
78 371 -3 2 -21 -76 -42 -174z"/>
<path d="M2926 2423 c-5 -20 -96 -442 -96 -449 0 -2 11 -4 24 -4 27 0 27 -1
51 115 21 104 25 115 34 115 12 0 28 -72 37 -157 6 -72 7 -73 35 -73 21 0 30
6 34 23 3 12 23 108 45 212 22 105 42 200 45 213 4 18 1 22 -19 22 -28 0 -26
4 -57 -144 -16 -74 -25 -102 -30 -90 -4 11 -8 13 -8 6 -1 -7 -5 -11 -10 -8 -5
3 -12 45 -15 93 -10 131 -14 143 -41 143 -14 0 -26 -7 -29 -17z"/>
<path d="M2595 2418 c-12 -41 -75 -361 -72 -365 3 -2 11 22 17 54 7 32 25 118
40 191 15 72 26 132 24 132 -3 0 -6 -6 -9 -12z"/>
<path d="M2796 2207 c-27 -127 -53 -228 -62 -237 -8 -8 -42 -18 -77 -21 l-62
-6 67 -1 c45 -2 71 2 81 12 13 13 114 463 105 471 -2 3 -26 -95 -52 -218z"/>
<path d="M3002 2410 c0 -14 2 -19 5 -12 2 6 2 18 0 25 -3 6 -5 1 -5 -13z"/>
<path d="M3107 2203 c-27 -125 -53 -233 -58 -240 -6 -6 -23 -14 -37 -16 -16
-3 -10 -4 13 -3 l40 1 13 60 c47 215 89 425 83 425 -3 0 -28 -102 -54 -227z"/>
<path d="M2391 2206 c-24 -119 -50 -224 -57 -234 -9 -13 -33 -18 -101 -23
l-88 -6 92 -1 c86 -2 94 0 107 21 15 25 99 419 94 443 -2 9 -23 -81 -47 -200z"/>
<path d="M3013 2320 c0 -25 2 -35 4 -22 2 12 2 32 0 45 -2 12 -4 2 -4 -23z"/>
<path d="M2917 2061 c-19 -94 -27 -108 -65 -114 -16 -3 -10 -4 13 -3 l39 1 19
80 c10 44 16 89 15 100 -2 11 -11 -18 -21 -64z"/>
<path d="M2556 1963 c-4 -5 -35 -11 -69 -14 l-62 -6 67 -1 c38 -1 70 3 73 9 9
13 1 22 -9 12z"/>
</g>
</svg>
